<svg xmlns="http://www.w3.org/2000/svg" xmlns:xlink="http://www.w3.org/1999/xlink" version="1.1" x="0px" y="0px" viewBox="0 0 96 120" enable-background="new 0 0 96 96" xml:space="preserve"><path d="M46,50.252c-0.66,0-1.316-0.084-1.948-0.244L16,42.996v21.252c0,0.532,0.212,1.04,0.584,1.416  c5.96,5.96,19.104,8.084,29.416,8.084c10.313,0,23.452-2.124,29.416-8.084C75.792,65.288,76,64.78,76,64.252v-20.62l-28.228,6.416  C47.188,50.184,46.592,50.252,46,50.252z"/><path d="M90.54,28.288l-44-6c-0.176-0.024-0.36-0.036-0.54-0.036c-0.2,0-0.396,0.016-0.592,0.044l-40,6  C3.52,28.58,2.1,30.156,2.004,32.06c-0.088,1.904,1.176,3.608,3.028,4.072l40,10c0.316,0.084,0.644,0.12,0.968,0.12  c0.296,0,0.592-0.032,0.888-0.096l34.76-7.904H84v24c0,1.104,0.9,2,2,2s2-0.896,2-2V36.808l2.893-0.656  c1.887-0.424,3.195-2.148,3.104-4.08C93.916,30.148,92.452,28.548,90.54,28.288L90.54,28.288z"/><text x="0" y="111" fill="#000000" font-size="5px" font-weight="bold" font-family="'Helvetica Neue', Helvetica, Arial-Unicode, Arial, Sans-serif">Created by iconsmind.com</text><text x="0" y="116" fill="#000000" font-size="5px" font-weight="bold" font-family="'Helvetica Neue', Helvetica, Arial-Unicode, Arial, Sans-serif">from the Noun Project</text></svg>