<svg xmlns="http://www.w3.org/2000/svg" data-name="Layer 1" viewBox="0 0 100 125" x="0px" y="0px"><title>icon</title><path d="M50,90.10449A40.10449,40.10449,0,1,1,90.10449,50,40.15013,40.15013,0,0,1,50,90.10449Zm0-76.5A36.39551,36.39551,0,1,0,86.39551,50,36.437,36.437,0,0,0,50,13.60449Zm17.56673,56.083H53.7679V58.37207H46.23177V69.6875H32.43294V50.13965h-8.624L50.00033,23.72852,76.19271,50.13965h-8.626V69.6875ZM56.55111,66.9043h8.23242V47.35645H69.513L50.00033,27.67969,30.48665,47.35645h4.72949V66.9043h8.23242V55.58887H56.55111V66.9043Z"/><text x="0" y="115" fill="#000000" font-size="5px" font-weight="bold" font-family="'Helvetica Neue', Helvetica, Arial-Unicode, Arial, Sans-serif">Created by Bob Basiewicz</text><text x="0" y="120" fill="#000000" font-size="5px" font-weight="bold" font-family="'Helvetica Neue', Helvetica, Arial-Unicode, Arial, Sans-serif">from the Noun Project</text></svg>